<svg xmlns="http://www.w3.org/2000/svg" version="1.1" xmlns:xlink="http://www.w3.org/1999/xlink" width="512" height="512" x="0" y="0" viewBox="0 0 16 16" style="enable-background:new 0 0 512 512" xml:space="preserve" class=""><g><path fill="#86a789" d="M2.5 15h11a1.498 1.498 0 0 0 1.5-1.5v-11A1.498 1.498 0 0 0 13.5 1h-11A1.498 1.498 0 0 0 1 2.5v11A1.498 1.498 0 0 0 2.5 15zM5 3.5a.5.5 0 0 1 1 0v2a2 2 0 0 0 4 0v-2a.5.5 0 0 1 1 0v2a3 3 0 0 1-6 0z" opacity="1" data-original="#2196f3" class=""></path></g></svg>